<?xml version="1.0" encoding="UTF-8"?>
<svg width="665px" height="415px" viewBox="0 0 665 415" version="1.1" xmlns="http://www.w3.org/2000/svg" xmlns:xlink="http://www.w3.org/1999/xlink">
    <defs>
        <linearGradient x1="57.0463397%" y1="8.08555253%" x2="63.6038928%" y2="94.8472489%" id="linearGradient-1">
            <stop stop-color="#79589E" offset="0%"></stop>
            <stop stop-color="#3268B9" offset="100%"></stop>
        </linearGradient>
        <path d="M782.087243,410.188239 L630.929668,410.550101 C533.984503,410.778919 455.207637,489.368766 454.978274,586.083777 C454.742371,682.798804 533.142071,761.01238 630.090514,760.780291 C681.083353,760.658218 729.796747,738.908902 764.553326,704.242832 C714.223237,774.80833 631.689166,820.819793 538.408542,820.819793 C385.10377,820.819793 260.825696,696.54172 260.825696,543.236947 C260.825696,500.334104 270.558889,459.70457 287.937601,423.436017 C271.187972,406.711438 260.825696,383.59172 260.825696,358.051762 C260.825696,307.021943 302.193538,265.654101 353.223357,265.654101 C378.763315,265.654101 401.883034,276.016377 418.607596,292.766013 C418.753889,292.695914 418.900236,292.625948 419.046654,292.556106 C423.348205,298.538528 431.664994,300.643226 438.41334,297.204772 C444.240614,294.235627 446.826067,288.020007 446.625094,281.784509 C446.584184,280.51522 446.172788,279.343414 445.634329,278.176943 C446.230352,253.072917 466.767397,232.905563 492.01478,232.905563 C512.891194,232.905563 530.54705,246.694412 536.371657,265.661418 C537.050043,265.656543 537.729008,265.654101 538.408542,265.654101 C643.506356,265.654101 734.962308,324.061858 782.087217,410.188192 Z M811.072571,490.940989 C814.301436,507.877573 815.991388,525.359905 815.991388,543.236947 C815.991388,557.585108 814.90277,571.679009 812.803623,585.44056 L806.047854,585.44056 L806.056403,585.636678 C777.199116,588.196045 757.679336,592.616757 747.497064,598.898813 C737.596209,605.007246 725.559059,616.741146 711.385616,634.100511 C710.647779,635.317854 709.883268,636.517374 709.092896,637.698259 C692.090871,663.100791 663.122117,679.880287 630.281642,679.960958 C578.082416,680.082657 535.867945,637.968406 535.989934,585.893103 C536.115201,533.81453 578.532757,491.497675 630.735262,491.372706 L811.072571,490.940989 Z M399.227256,242.262288 C386.52363,242.262288 376.225306,231.963965 376.225306,219.260339 C376.225306,206.556713 386.52363,196.258389 399.227256,196.258389 C411.930882,196.258389 422.229205,206.556713 422.229205,219.260339 C422.229205,231.963965 411.930882,242.262288 399.227256,242.262288 Z M341.917314,196.258389 C335.457843,196.258389 330.221408,191.021954 330.221408,184.562483 C330.221408,178.103012 335.457843,172.866577 341.917314,172.866577 C348.376785,172.866577 353.613221,178.103012 353.613221,184.562483 C353.613221,191.021954 348.376785,196.258389 341.917314,196.258389 Z M364.5294,173.646304 C358.069929,173.646304 352.833494,168.409868 352.833494,161.950397 C352.833494,155.490927 358.069929,150.254491 364.5294,150.254491 C370.988871,150.254491 376.225306,155.490927 376.225306,161.950397 C376.225306,168.409868 370.988871,173.646304 364.5294,173.646304 Z M318.525501,150.254491 C312.066031,150.254491 306.829595,145.018055 306.829595,138.558584 C306.829595,132.099114 312.066031,126.862678 318.525501,126.862678 C324.984972,126.862678 330.221408,132.099114 330.221408,138.558584 C330.221408,145.018055 324.984972,150.254491 318.525501,150.254491 Z M272.521603,173.646304 C266.062132,173.646304 260.825696,168.409868 260.825696,161.950397 C260.825696,155.490927 266.062132,150.254491 272.521603,150.254491 C278.981073,150.254491 284.217509,155.490927 284.217509,161.950397 C284.217509,168.409868 278.981073,173.646304 272.521603,173.646304 Z M225.737977,404.445524 C219.278506,404.445524 214.042071,399.209088 214.042071,392.749618 C214.042071,386.290147 219.278506,381.053711 225.737977,381.053711 C232.197448,381.053711 237.433883,386.290147 237.433883,392.749618 C237.433883,399.209088 232.197448,404.445524 225.737977,404.445524 Z M203.125891,173.646304 C196.66642,173.646304 191.429985,168.409868 191.429985,161.950397 C191.429985,155.490927 196.66642,150.254491 203.125891,150.254491 C209.585362,150.254491 214.821798,155.490927 214.821798,161.950397 C214.821798,168.409868 209.585362,173.646304 203.125891,173.646304 Z M191.040121,265.654101 C178.336495,265.654101 168.038172,255.355778 168.038172,242.652152 C168.038172,229.948526 178.336495,219.650202 191.040121,219.650202 C203.743747,219.650202 214.042071,229.948526 214.042071,242.652152 C214.042071,255.355778 203.743747,265.654101 191.040121,265.654101 Z M283.827646,242.262288 C271.12402,242.262288 260.825696,231.963965 260.825696,219.260339 C260.825696,206.556713 271.12402,196.258389 283.827646,196.258389 C296.531271,196.258389 306.829595,206.556713 306.829595,219.260339 C306.829595,231.963965 296.531271,242.262288 283.827646,242.262288 Z M202.736028,358.441625 C183.572931,358.441625 168.038172,342.906866 168.038172,323.74377 C168.038172,304.580673 183.572931,289.045914 202.736028,289.045914 C221.899124,289.045914 237.433883,304.580673 237.433883,323.74377 C237.433883,342.906866 221.899124,358.441625 202.736028,358.441625 Z M630.41634,632.125836 C655.823591,632.125836 676.420238,611.354641 676.420238,585.732074 C676.420238,560.109506 655.823591,539.338312 630.41634,539.338312 C605.009088,539.338312 584.412441,560.109506 584.412441,585.732074 C584.412441,611.354641 605.009088,632.125836 630.41634,632.125836 Z" id="path-2"></path>
        <filter x="-0.3%" y="-0.3%" width="100.6%" height="100.6%" filterUnits="objectBoundingBox" id="filter-4">
            <feGaussianBlur stdDeviation="1.5" in="SourceAlpha" result="shadowBlurInner1"></feGaussianBlur>
            <feOffset dx="0" dy="1" in="shadowBlurInner1" result="shadowOffsetInner1"></feOffset>
            <feComposite in="shadowOffsetInner1" in2="SourceAlpha" operator="arithmetic" k2="-1" k3="1" result="shadowInnerInner1"></feComposite>
            <feColorMatrix values="0 0 0 0 0   0 0 0 0 0   0 0 0 0 0  0 0 0 0.5 0" type="matrix" in="shadowInnerInner1"></feColorMatrix>
        </filter>
    </defs>
    <g id="Editable" stroke="none" stroke-width="1" fill="none" fill-rule="evenodd">
        <g id="Intro" transform="translate(-775.000000, -585.000000)">
            <g id="Brand-Splash" transform="translate(1097.000000, 750.000000) rotate(-360.000000) translate(-1097.000000, -750.000000) translate(697.000000, 350.000000)">
                <mask id="mask-3" fill="white">
                    <use xlink:href="#path-2"></use>
                </mask>
                <g id="Combined-Shape" fill-rule="nonzero" transform="translate(492.014780, 473.841236) rotate(-28.000000) translate(-492.014780, -473.841236) ">
                    <use fill="url(#linearGradient-1)" xlink:href="#path-2"></use>
                    <use fill="black" fill-opacity="1" filter="url(#filter-4)" xlink:href="#path-2"></use>
                </g>
            </g>
        </g>
    </g>
</svg>