<?xml version="1.0" encoding="UTF-8"?>
<svg width="160px" height="38px" viewBox="0 0 160 38" version="1.1" xmlns="http://www.w3.org/2000/svg" xmlns:xlink="http://www.w3.org/1999/xlink">
    <!-- Generator: sketchtool 51.2 (57519) - http://www.bohemiancoding.com/sketch -->
    <title>15E2854C-C0FB-420D-9651-32C7D3C8D466</title>
    <desc>Created with sketchtool.</desc>
    <defs>
        <linearGradient x1="-14.3244399%" y1="-10.5518482%" x2="114.557725%" y2="114.275906%" id="linearGradient-1">
            <stop stop-color="#32FBFC" offset="0%"></stop>
            <stop stop-color="#3214F2" offset="100%"></stop>
        </linearGradient>
        <path d="M40.6826229,34.2248987 C37.9181757,38.3477214 33.0302725,41.0869565 27.4615385,41.0869565 C18.8373997,41.0869565 11.8461538,34.5172219 11.8461538,26.4130435 C11.8461538,24.1347135 12.3987016,21.977657 13.3847404,20.0537529 C12.4329845,19.1715352 11.8461538,17.9632374 11.8461538,16.6304348 C11.8461538,13.929042 14.2569283,11.7391304 17.2307692,11.7391304 C18.6340268,11.7391304 19.9119128,12.2267329 20.8702974,13.0255931 C20.6006434,13.2050706 20.4218679,13.3872103 20.4807875,13.5028465 C20.6565707,13.8478405 21.2414913,13.9067996 21.7675514,13.6387585 C22.180288,13.4284588 22.4116801,13.0829489 22.4599007,12.7638737 C22.4732654,12.6754397 22.4396511,12.6030789 22.4017839,12.5287604 C22.4014648,12.528134 22.4011382,12.5275128 22.4008044,12.5268967 C22.4759131,12.5027309 22.5512801,12.479088 22.6269004,12.4559726 C22.6192798,12.3809979 22.6153846,12.3050426 22.6153846,12.2282609 C22.6153846,10.8775645 23.8207718,9.7826087 25.3076923,9.7826087 C26.61292,9.7826087 27.701214,10.6263195 27.9476913,11.7461066 C33.7406983,11.9125807 38.739686,15.0440222 41.2842101,19.580097 L32.8118886,19.5976612 C27.1938667,19.6091444 22.6287071,23.5531588 22.6154154,28.4067806 C22.6017447,33.2604032 27.1450474,37.1855345 32.7632592,37.1738872 C35.7810528,37.1676309 38.6610835,36.0294452 40.6826229,34.2248987 Z M42.9369655,28.3861651 C41.2776281,28.5148774 40.1543158,28.7361225 39.5670288,29.0499004 C38.9932691,29.3564508 38.2957102,29.945314 37.4743519,30.8164899 C37.4315938,30.877582 37.38729,30.9377797 37.3414876,30.9970421 C36.3562115,32.2718627 34.6774575,33.113938 32.7743351,33.1179865 C29.7493633,33.1240939 27.3030132,31.0105994 27.3100825,28.3972117 C27.3173418,25.7836598 29.7754608,23.6599976 32.8006226,23.6537261 L42.7970597,23.6330021 C42.9807537,24.5331595 43.0769231,25.4625478 43.0769231,26.4130435 C43.0769231,27.0821553 43.0292653,27.7408072 42.9369655,28.3861651 Z M19.9230769,11.7391304 C19.0309246,11.7391304 18.3076923,11.082157 18.3076923,10.2717391 C18.3076923,9.46132129 19.0309246,8.80434783 19.9230769,8.80434783 C20.8152292,8.80434783 21.5384615,9.46132129 21.5384615,10.2717391 C21.5384615,11.082157 20.8152292,11.7391304 19.9230769,11.7391304 Z M16.6923077,8.80434783 C16.3949236,8.80434783 16.1538462,8.58535667 16.1538462,8.31521739 C16.1538462,8.04507811 16.3949236,7.82608696 16.6923077,7.82608696 C16.9896918,7.82608696 17.2307692,8.04507811 17.2307692,8.31521739 C17.2307692,8.58535667 16.9896918,8.80434783 16.6923077,8.80434783 Z M17.7692308,6.84782609 C17.4718467,6.84782609 17.2307692,6.62883493 17.2307692,6.35869565 C17.2307692,6.08855637 17.4718467,5.86956522 17.7692308,5.86956522 C18.0666149,5.86956522 18.3076923,6.08855637 18.3076923,6.35869565 C18.3076923,6.62883493 18.0666149,6.84782609 17.7692308,6.84782609 Z M14.5384615,5.86956522 C14.2410774,5.86956522 14,5.65057406 14,5.38043478 C14,5.1102955 14.2410774,4.89130435 14.5384615,4.89130435 C14.8358456,4.89130435 15.0769231,5.1102955 15.0769231,5.38043478 C15.0769231,5.65057406 14.8358456,5.86956522 14.5384615,5.86956522 Z M12.3846154,6.84782609 C12.0872313,6.84782609 11.8461538,6.62883493 11.8461538,6.35869565 C11.8461538,6.08855637 12.0872313,5.86956522 12.3846154,5.86956522 C12.6819995,5.86956522 12.9230769,6.08855637 12.9230769,6.35869565 C12.9230769,6.62883493 12.6819995,6.84782609 12.3846154,6.84782609 Z M10.2307692,18.5869565 C9.93338513,18.5869565 9.69230769,18.3679654 9.69230769,18.0978261 C9.69230769,17.8276868 9.93338513,17.6086957 10.2307692,17.6086957 C10.5281533,17.6086957 10.7692308,17.8276868 10.7692308,18.0978261 C10.7692308,18.3679654 10.5281533,18.5869565 10.2307692,18.5869565 Z M8.07692308,6.84782609 C7.77953898,6.84782609 7.53846154,6.62883493 7.53846154,6.35869565 C7.53846154,6.08855637 7.77953898,5.86956522 8.07692308,5.86956522 C8.37430717,5.86956522 8.61538462,6.08855637 8.61538462,6.35869565 C8.61538462,6.62883493 8.37430717,6.84782609 8.07692308,6.84782609 Z M8.07692308,12.7173913 C7.18477079,12.7173913 6.46153846,12.0604178 6.46153846,11.25 C6.46153846,10.4395822 7.18477079,9.7826087 8.07692308,9.7826087 C8.96907537,9.7826087 9.69230769,10.4395822 9.69230769,11.25 C9.69230769,12.0604178 8.96907537,12.7173913 8.07692308,12.7173913 Z M13.4615385,11.7391304 C12.5693862,11.7391304 11.8461538,11.082157 11.8461538,10.2717391 C11.8461538,9.46132129 12.5693862,8.80434783 13.4615385,8.80434783 C14.3536907,8.80434783 15.0769231,9.46132129 15.0769231,10.2717391 C15.0769231,11.082157 14.3536907,11.7391304 13.4615385,11.7391304 Z M8.07692308,17.6086957 C7.18477079,17.6086957 6.46153846,16.732731 6.46153846,15.6521739 C6.46153846,14.5716168 7.18477079,13.6956522 8.07692308,13.6956522 C8.96907537,13.6956522 9.69230769,14.5716168 9.69230769,15.6521739 C9.69230769,16.732731 8.96907537,17.6086957 8.07692308,17.6086957 Z M32.8461538,31.3043478 C34.3330743,31.3043478 35.5384615,30.2093921 35.5384615,28.8586957 C35.5384615,27.5079993 34.3330743,26.4130435 32.8461538,26.4130435 C31.3592334,26.4130435 30.1538462,27.5079993 30.1538462,28.8586957 C30.1538462,30.2093921 31.3592334,31.3043478 32.8461538,31.3043478 Z" id="path-2"></path>
        <filter x="-5.5%" y="-5.5%" width="110.9%" height="111.1%" filterUnits="objectBoundingBox" id="filter-4">
            <feGaussianBlur stdDeviation="1.5" in="SourceAlpha" result="shadowBlurInner1"></feGaussianBlur>
            <feOffset dx="0" dy="1" in="shadowBlurInner1" result="shadowOffsetInner1"></feOffset>
            <feComposite in="shadowOffsetInner1" in2="SourceAlpha" operator="arithmetic" k2="-1" k3="1" result="shadowInnerInner1"></feComposite>
            <feColorMatrix values="0 0 0 0 0   0 0 0 0 0   0 0 0 0 0  0 0 0 0.5 0" type="matrix" in="shadowInnerInner1"></feColorMatrix>
        </filter>
    </defs>
    <g id="Editable" stroke="none" stroke-width="1" fill="none" fill-rule="evenodd">
        <g id="Logos" transform="translate(-80.000000, -44.000000)">
            <g id="Logo" transform="translate(74.000000, 40.000000)">
                <text id="ELEGANT" font-family="Roboto-Bold, Roboto" font-size="20" font-weight="bold" letter-spacing="5.19999981" fill="#305EF0">
                    <tspan x="48.4615385" y="33.4130435">ELEGAN</tspan>
                    <tspan x="153.909584" y="33.4130435">T</tspan>
                </text>
                <mask id="mask-3" fill="white">
                    <use xlink:href="#path-2"></use>
                </mask>
                <g id="Combined-Shape" fill-rule="nonzero">
                    <use fill="url(#linearGradient-1)" xlink:href="#path-2"></use>
                    <use fill="black" fill-opacity="1" filter="url(#filter-4)" xlink:href="#path-2"></use>
                </g>
            </g>
        </g>
    </g>
</svg>